#!OML:ASF X:\für Bonn\!DataBase\2005_08_10_Bjorn_Final\c3d\bjorn.ASF
:FULLY-SPECIFIED
:DEGREES
106
root 21.284 18.7825 -18.8801 180.858 -32.3537 -170.833
lowerback 1.40388 6.69258 7.6561
upperback 6.13328 8.49811 0.0783582
thorax 6.79491 4.50238 -3.68678
lowerneck 0.590977 2.297 7.3064
upperneck 0.729365 3.11941 -8.83439
head 0.412098 1.5543 -4.19801
rclavicle 5.397e-014 -2.5842e-015
rhumerus -21.9646 29.6918 -103.335
rradius 98.4825
rwrist 2.91477
rhand -23.697 29.4429
rfingers 7.12502
rthumb 2.76998 -0.518841
lclavicle 5.397e-014 -2.5842e-015
lhumerus -59.0511 -20.9899 100.975
lradius 85.0492
lwrist 0.0439009
lhand -39.5663 -22.9933
lfingers 7.12502
lthumb -12.5497 6.60982
rfemur 12.0606 -0.589067 11.737
rtibia 24.4833
rfoot 10.771 19.8165
rtoes -22.6286
lfemur -41.9272 4.80446 -22.4722
ltibia 51.0381
lfoot -10.1895 -1.43374
ltoes -6.28865
107
root 21.0539 18.8209 -19.1142 180.845 -32.5233 -171.119
lowerback 1.30036 6.93555 7.41519
upperback 6.03085 8.85416 -0.186176
thorax 6.79359 4.67934 -3.79555
lowerneck 0.79366 2.01583 7.36697
upperneck 0.800506 2.75947 -8.44169
head 0.360064 1.38114 -4.07513
rclavicle 8.09551e-014 -8.34896e-015
rhumerus -23.5383 30.5726 -104.068
rradius 99.1458
rwrist 3.2912
rhand -23.1706 29.2079
rfingers 7.12502
rthumb 3.27838 -0.746625
lclavicle 8.09551e-014 -8.34896e-015
lhumerus -58.6927 -21.226 100.71
lradius 84.8438
lwrist 0.314585
lhand -39.7547 -23.6717
lfingers 7.12502
lthumb -12.7313 5.92013
rfemur 12.6466 -0.107736 11.1622
rtibia 24.9559
rfoot 11.9812 19.2411
rtoes -24.2279
lfemur -41.4274 5.46931 -23.5181
ltibia 48.1016
lfoot -8.54212 -1.83377
ltoes -5.78424
108
root 20.825 18.8478 -19.3403 180.768 -32.669 -171.333
lowerback 1.28347 7.15639 7.30223
upperback 5.90679 9.18526 -0.488097
thorax 6.7468 4.85048 -4.02487
lowerneck 0.957794 1.75425 7.48383
upperneck 0.905556 2.42628 -7.99335
head 0.32978 1.22075 -3.94252
rclavicle -6.27166e-014 -2.36554e-014
rhumerus -25.3369 31.4798 -104.876
rradius 99.8997
rwrist 3.40236
rhand -22.8284 28.5267
rfingers 7.12502
rthumb 3.60883 -1.42246
lclavicle -6.27166e-014 -2.36554e-014
lhumerus -58.3138 -21.5379 100.324
lradius 84.6558
lwrist 0.644797
lhand -39.839 -24.4606
lfingers 7.12502
lthumb -12.8126 5.12618
rfemur 13.0206 0.33998 10.6238
rtibia 25.8624
rfoot 12.6066 18.7885
rtoes -25.7559
lfemur -40.8002 5.98321 -24.3607
ltibia 45.3848
lfoot -7.12316 -2.15337
ltoes -3.23621
109
root 20.594 18.8589 -19.5631 180.641 -32.7909 -171.496
lowerback 1.27122 7.35146 7.25216
upperback 5.81782 9.47192 -0.736678
thorax 6.73375 5.00075 -4.23369
lowerneck 1.05144 1.55738 7.37085
upperneck 1.00732 2.17176 -7.43208
head 0.314589 1.09718 -3.72362
rclavicle 1.2275e-013 -3.69739e-014
rhumerus -27.4101 32.4151 -105.748
rradius 100.649
rwrist 3.44984
rhand -22.5685 27.6818
rfingers 7.12502
rthumb 3.8598 -2.26303
lclavicle 1.2275e-013 -3.69739e-014
lhumerus -57.8105 -21.7243 100.047
lradius 84.4689
lwrist 0.901301
lhand -39.8512 -25.1798
lfingers 7.12502
lthumb -12.8243 4.40622
rfemur 13.1986 0.617043 10.0142
rtibia 27.1913
rfoot 12.9839 18.3761
rtoes -26.7707
lfemur -40.1925 6.64672 -25.223
ltibia 42.9278
lfoot -6.00559 -2.16142
ltoes -1.12205
110
root 20.3659 18.8613 -19.7908 180.422 -32.9581 -171.604
lowerback 1.27575 7.54461 7.22795
upperback 5.77481 9.75003 -0.974253
thorax 6.76509 5.14821 -4.4436
lowerneck 1.0643 1.36289 7.28163
upperneck 1.09823 1.91451 -6.8735
head 0.31249 0.970818 -3.51122
rclavicle 3.46879e-014 -1.59028e-015
rhumerus -29.4293 33.2564 -106.521
rradius 101.29
rwrist 3.18599
rhand -22.1253 26.8206
rfingers 7.12502
rthumb 4.28779 -3.11594
lclavicle 3.46879e-014 -1.59028e-015
lhumerus -57.3326 -22.0384 99.7962
lradius 84.5164
lwrist 1.0595
lhand -39.8941 -25.6339
lfingers 7.12502
lthumb -12.8657 3.94954
rfemur 13.2885 0.871031 9.47644
rtibia 28.8752
rfoot 13.2297 17.5452
rtoes -26.3575
lfemur -39.5493 7.49252 -26.064
ltibia 40.8164
lfoot -5.15775 -2.03117
ltoes -0.0529528
111
root 20.1342 18.8567 -20.023 180.015 -33.2122 -171.439
lowerback 1.20423 7.69855 7.37379
upperback 5.79017 9.95419 -1.07489
thorax 6.90088 5.26483 -4.59218
lowerneck 1.02368 1.20321 6.95661
upperneck 1.17492 1.69595 -6.22788
head 0.316726 0.861853 -3.22443
rclavicle -9.39258e-014 2.0276e-014
rhumerus -31.4564 34.0065 -107.231
rradius 101.725
rwrist 2.93445
rhand -21.8615 26.5031
rfingers 7.12502
rthumb 4.54248 -3.42817
lclavicle -9.39258e-014 2.0276e-014
lhumerus -56.7436 -22.2904 99.7053
lradius 84.6693
lwrist 0.999046
lhand -40.1069 -25.7211
lfingers 7.12502
lthumb -13.0708 3.84931
rfemur 13.3069 1.09246 9.20427
rtibia 30.8763
rfoot 13.2562 16.4279
rtoes -24.8584
lfemur -38.8687 8.30508 -26.6174
ltibia 39.1181
lfoot -4.6376 -1.77307
ltoes 0.664303
